PathFileType	3	(X/Y/Z)	F:\ViconData\AntennenMessung\Messung1\Session1\ID03.trc
DataRate	CameraRate	NumFrames	NumMarkers	Units	OrigDataRate	OrigDataStartFrame	OrigNumFrames
120.0	120.0	6	70	mm	120.0	291	1160	
Frame#	Time	Ashort			Along			Atop			A4			Bshort			Blong			Btop			B4			Cshort			Clong			Ctop			C4			Dshort			Dlong			Dtop			D4			Eshort			Elong			Etop			E4			Fshort			Flong			Ftop			F4			Gshort			Glong			Gtop			G4			Hshort			Hlong			Htop			H4			I1			I2			I3			I4			I5			WandAshort			WandAlong			WandAtop			WandA4			WandA15			WandBshort			WandB4			WandB5			WandBtop			WandBlong			WandCshort			WandClong			WandCtop			WandC4			WandC5			Acenter			Aantenna			Bcenter			Bantenna			Ccenter			Cantenna			Dcenter			Dantenna			Ecenter			Eantenna			Fcenter			Fantenna			Gcenter			Gantenna			Hcenter			Hantenna			Icenter			Iantenna			
		X1	Y1	Z1	X2	Y2	Z2	X3	Y3	Z3	X4	Y4	Z4	X5	Y5	Z5	X6	Y6	Z6	X7	Y7	Z7	X8	Y8	Z8	X9	Y9	Z9	X10	Y10	Z10	X11	Y11	Z11	X12	Y12	Z12	X13	Y13	Z13	X14	Y14	Z14	X15	Y15	Z15	X16	Y16	Z16	X17	Y17	Z17	X18	Y18	Z18	X19	Y19	Z19	X20	Y20	Z20	X21	Y21	Z21	X22	Y22	Z22	X23	Y23	Z23	X24	Y24	Z24	X25	Y25	Z25	X26	Y26	Z26	X27	Y27	Z27	X28	Y28	Z28	X29	Y29	Z29	X30	Y30	Z30	X31	Y31	Z31	X32	Y32	Z32	X33	Y33	Z33	X34	Y34	Z34	X35	Y35	Z35	X36	Y36	Z36	X37	Y37	Z37	X38	Y38	Z38	X39	Y39	Z39	X40	Y40	Z40	X41	Y41	Z41	X42	Y42	Z42	X43	Y43	Z43	X44	Y44	Z44	X45	Y45	Z45	X46	Y46	Z46	X47	Y47	Z47	X48	Y48	Z48	X49	Y49	Z49	X50	Y50	Z50	X51	Y51	Z51	X52	Y52	Z52	X53	Y53	Z53	X54	Y54	Z54	X55	Y55	Z55	X56	Y56	Z56	X57	Y57	Z57	X58	Y58	Z58	X59	Y59	Z59	X60	Y60	Z60	X61	Y61	Z61	X62	Y62	Z62	X63	Y63	Z63	X64	Y64	Z64	X65	Y65	Z65	X66	Y66	Z66	X67	Y67	Z67	X68	Y68	Z68	X69	Y69	Z69	X70	Y70	Z70	
291	2.4166667	-1038.2606	214.52528	-1644.2438	-1109.3057	203.41417	-1599.5387	-1063.5681	173.07202	-1625.756	-1054.1993	262.07639	-1634.9718	-1352.9114	235.2645	1003.8587	-1281.4135	227.07787	1052.3475	-1323.123	194.20232	1020.7712	-1284.562	287.88287	1052.7457	813.81891	187.65546	1209.4406	892.4342	178.43886	1179.1899	844.27704	145.50945	1198.2296	860.47583	292.39838	1167.2903	1115.7335	209.45024	-1401.575	1056.2231	194.04359	-1460.1892	1095.0088	162.16792	-1423.9426	1069.8472	238.5757	-1425.9661	-1204.5105	1685.9917	-1563.1969	-1129.1427	1688.2184	-1606.0974	-1173.1086	1724.3757	-1581.9684	-1133.5327	1581.0741	-1603.5337	-1239.7422	1699.2642	1119.2998	-1309.4142	1698.7888	1071.7859	-1270.391	1736.1903	1096.6858	-1244.5737	1594.4973	1106.6716	988.80994	1664.1964	1162.2441	955.81293	1702.2805	1181.1283	922.18085	1662.2189	1214.8284	939.79541	1659.3096	1159.9001	999.20374	1668.5442	-1579.5006	1058.7701	1669.9952	-1518.693	1025.0593	1708.0032	-1551.1727	1059.2944	1672.198	-1585.653	-552.50079	1664.1475	-294.43509	-557.33057	1664.9592	-210.14836	-555.32202	1701.3575	-257.09177	-586.76587	1662.5087	-259.61365	-507.30341	1666.6018	-254.52354																																														-1068.8319	209.74405	-1625.0066	-1074.3719	248.3405	-1624.2179	-1321.7108	231.69199	1025.0183	-1320.252	270.41696	1029.4055	848.00092	183.64807	1196.2875	851.78607	222.4137	1194.3134	1088.7365	202.46097	-1428.1654	1082.7697	240.79189	-1432.1826	-1171.8878	1686.9553	-1581.766	-1170.6163	1647.9767	-1581.5553	-1271.0151	1699.0507	1097.9727	-1271.67	1660.0796	1099.3229	953.3009	1705.1797	1182.5658	972.84857	1732.1649	1162.3004	1026.4886	1669.2087	-1551.647	1027.9244	1630.238	-1552.1235	-554.66309	1664.5109	-256.69919	-553.96582	1625.5193	-256.28372
292	2.425	-1038.3252	214.62943	-1644.17	-1109.3278	203.46796	-1599.5732	-1063.6323	172.61093	-1625.566	-1054.2112	262.11124	-1634.981	-1353.059	234.9875	1003.86	-1281.3148	227.14668	1052.3158	-1323.0209	194.22304	1020.8104	-1284.5688	287.91556	1052.6796	813.80292	187.63821	1209.4851	892.36426	178.34795	1179.2375	844.48517	145.31146	1198.1602	860.41144	292.48291	1167.4264	1115.8086	209.74274	-1401.6989	1056.2499	194.08101	-1460.1896	1094.9904	162.09212	-1423.8569	1069.8566	238.59505	-1425.9761	-1204.4359	1685.9303	-1563.3356	-1129.12	1688.2032	-1606.0596	-1173.1083	1724.3654	-1581.9647	-1133.5308	1581.0502	-1603.5297	-1239.7504	1699.266	1119.2979	-1309.4297	1698.7922	1071.7891	-1270.4064	1736.2163	1096.7028	-1244.6095	1594.4783	1106.6458	988.90204	1664.2634	1162.2501	955.92865	1702.2211	1181.1598	922.58899	1662.0953	1214.9631	939.74921	1659.2653	1159.9314	999.1814	1668.604	-1579.5487	1058.7668	1669.9908	-1518.686	1025.0693	1708.0054	-1551.1635	1059.2937	1672.1984	-1585.6691	-552.50476	1664.1454	-294.44632	-557.32239	1664.9502	-210.15622	-555.31024	1701.3589	-257.10315	-586.75525	1662.4983	-259.61612	-507.30133	1666.5979	-254.54489																																														-1069.0444	209.8004	-1624.8751	-1074.66	248.38733	-1624.1582	-1321.7659	231.56752	1024.9952	-1320.4642	270.30334	1029.3359	848.26086	183.56337	1196.2181	852.08698	222.32532	1194.2501	1088.7092	202.61662	-1428.312	1082.7706	240.93097	-1432.5243	-1171.8848	1686.9126	-1581.8005	-1170.6116	1647.9337	-1581.6298	-1271.0219	1699.0533	1097.9762	-1271.6674	1660.0815	1099.3118	953.46674	1705.0551	1182.5715	972.87921	1732.0634	1162.2073	1026.4819	1669.2394	-1551.663	1027.902	1630.2684	-1552.165	-554.66132	1664.5056	-256.71411	-553.97473	1625.5138	-256.30252
293	2.4333333	-1038.3369	214.6144	-1644.1459	-1109.3125	203.46919	-1599.5544	-1063.5676	172.646	-1625.6165	-1054.1974	262.07562	-1634.976	-1353.0262	234.97893	1003.9186	-1281.3368	227.06419	1052.2681	-1323.0939	194.15259	1020.8299	-1284.6271	287.86243	1052.7469	813.81488	187.70229	1209.459	892.263	178.4221	1179.2311	844.5072	145.39275	1198.2252	860.45483	292.52408	1167.3217	1115.7505	209.47011	-1401.5764	1056.1946	194.04034	-1460.2101	1094.9495	162.08713	-1423.9259	1069.8839	238.60405	-1425.9615	-1204.5106	1686.0022	-1563.189	-1129.1074	1688.2106	-1606.0958	-1173.104	1724.379	-1581.9679	-1133.526	1581.0475	-1603.507	-1239.7164	1699.2314	1119.2827	-1309.4525	1698.8561	1071.8148	-1270.3846	1736.1864	1096.6794	-1244.5353	1594.5372	1106.7191	988.86188	1664.22	1162.2877	955.78564	1702.2792	1181.1111	922.5672	1662.1171	1214.9244	939.82898	1659.2811	1159.9438	999.20667	1668.5696	-1579.531	1058.9041	1670.1661	-1518.6675	1025.0665	1708.0114	-1551.1763	1059.2988	1672.2125	-1585.6509	-552.50391	1664.1531	-294.44464	-557.32886	1664.9564	-210.142	-555.32703	1701.3589	-257.10275	-586.75586	1662.4927	-259.60849	-507.3042	1666.6019	-254.55612																																														-1068.9576	209.80605	-1624.9077	-1074.5551	248.39526	-1624.172	-1321.7761	231.52882	1024.9945	-1320.4105	270.26517	1029.3107	848.24677	183.62907	1196.1914	852.0376	222.3896	1194.1298	1088.7023	202.46249	-1428.2054	1082.7715	240.79416	-1432.2686	-1171.886	1686.9578	-1581.7534	-1170.6171	1647.979	-1581.5299	-1271.0519	1699.0629	1097.9532	-1271.7522	1660.092	1099.2904	953.42572	1704.9945	1182.4541	972.83405	1731.9622	1162.032	1026.5686	1669.3013	-1551.6343	1028.0809	1630.3333	-1552.0955	-554.66333	1664.5127	-256.71365	-553.96112	1625.5211	-256.30191
294	2.4416667	-1038.3317	214.65004	-1644.1926	-1109.3104	203.42108	-1599.5468	-1063.6211	172.61838	-1625.6013	-1054.1819	262.07944	-1634.9681	-1353.0864	234.95837	1003.8974	-1281.4347	227.31134	1052.3037	-1323.1339	194.14908	1020.8282	-1284.5942	287.88464	1052.7662	813.80261	187.66216	1209.4886	892.25	178.47368	1179.2625	844.47937	145.39545	1198.1442	860.40948	292.41748	1167.3718	1115.7408	209.46298	-1401.5793	1056.243	194.08588	-1460.2019	1094.9944	162.12344	-1423.9146	1069.8429	238.58943	-1425.944	-1204.5105	1686.0044	-1563.1947	-1129.1019	1688.2664	-1606.3145	-1173.1194	1724.3816	-1581.968	-1133.515	1581.0458	-1603.5002	-1239.7435	1699.2627	1119.297	-1309.4338	1698.8195	1071.7915	-1270.3679	1736.174	1096.6774	-1244.5925	1594.3555	1106.2354	988.81787	1664.1973	1162.2517	955.87451	1702.1666	1181.1289	922.56116	1662.1084	1214.8292	939.72778	1659.2625	1159.8833	999.21216	1668.5513	-1579.5018	1058.7672	1669.9794	-1518.6993	1025.0684	1708.0023	-1551.1677	1059.297	1672.1897	-1585.6539	-552.5033	1664.1478	-294.43564	-557.33551	1664.9681	-210.15086	-555.30914	1701.3539	-257.10532	-586.75812	1662.4883	-259.60925	-507.29483	1666.5883	-254.5544																																														-1069.0443	209.7912	-1624.8741	-1074.6738	248.37541	-1624.1193	-1321.9199	231.63213	1024.9526	-1320.665	270.37808	1029.2161	848.21942	183.63094	1196.2275	852.01135	222.39748	1194.2843	1088.7542	202.48831	-1428.1691	1082.8276	240.82304	-1432.2096	-1171.9191	1686.9819	-1581.8308	-1170.668	1648.0023	-1581.688	-1271.0183	1699.0637	1097.978	-1271.7014	1660.0936	1099.3439	953.44507	1704.9667	1182.5209	972.89618	1731.9594	1162.1727	1026.4918	1669.2054	-1551.6506	1027.9215	1630.2346	-1552.1359	-554.66608	1664.5149	-256.70996	-553.9856	1625.5231	-256.2915
295	2.45	-1038.303	214.52287	-1644.2251	-1109.3331	203.42322	-1599.5446	-1063.5768	172.6187	-1625.5787	-1054.1949	262.0824	-1634.9683	-1353.0172	235.00375	1003.8771	-1281.2848	227.03821	1052.3424	-1323.1141	194.18042	1020.823	-1284.6278	287.87683	1052.7699	813.81549	187.59959	1209.4951	892.24451	178.46399	1179.2683	844.2533	145.62672	1198.1486	860.38068	292.42184	1167.3311	1115.7521	209.45125	-1401.5637	1056.219	194.04396	-1460.1869	1094.9969	162.17986	-1423.865	1069.844	238.53418	-1425.9308	-1204.436	1685.9362	-1563.3409	-1129.1062	1688.22	-1606.0807	-1173.1462	1724.3274	-1581.9025	-1133.505	1581.0358	-1603.4902	-1239.7466	1699.2723	1119.3049	-1309.4448	1698.854	1071.8025	-1270.4087	1736.2008	1096.6896	-1244.5753	1594.4712	1106.6201	988.8241	1664.1924	1162.2562	956.01971	1702.238	1181.121	922.09534	1662.2295	1214.8346	939.79071	1659.2625	1159.8826	999.18341	1668.6088	-1579.5674	1058.7643	1669.9714	-1518.6975	1025.0682	1708.0093	-1551.1638	1059.3043	1672.2076	-1585.6526	-552.50464	1664.1455	-294.44354	-557.32739	1664.963	-210.13231	-555.32147	1701.3569	-257.10391	-586.7608	1662.4911	-259.61609	-507.30133	1666.5942	-254.55569																																														-1068.9706	209.73053	-1624.934	-1074.579	248.31932	-1624.2637	-1321.7775	231.53471	1024.9839	-1320.3914	270.27051	1029.2988	847.97754	183.6203	1196.3289	851.77789	222.39026	1194.4719	1088.7716	202.46864	-1428.1317	1082.8485	240.80188	-1432.1914	-1171.9412	1686.9214	-1581.7773	-1170.6854	1647.9417	-1581.647	-1271.0558	1699.0844	1097.9662	-1271.7354	1660.1133	1099.3066	953.43683	1705.2334	1182.6062	973.08459	1732.1924	1162.4026	1026.4813	1669.233	-1551.6788	1027.9015	1630.2623	-1552.1965	-554.66315	1664.5114	-256.70898	-553.96655	1625.5198	-256.29108
296	2.4583333	-1038.2786	214.48297	-1644.2039	-1109.3138	203.43283	-1599.5308	-1063.5216	172.61119	-1625.6421	-1054.2119	262.08121	-1634.9764	-1353.1554	234.93127	1003.9459	-1281.3828	227.09927	1052.3053	-1323.0762	194.21069	1020.8256	-1284.6169	287.90622	1052.7268	813.83191	187.67632	1209.5081	892.44897	178.45497	1179.2362	844.28931	145.49214	1198.1927	860.48938	292.5405	1167.3429	1115.7428	209.45932	-1401.578	1056.2797	194.0954	-1460.187	1094.9922	162.1757	-1423.9052	1069.8696	238.60686	-1425.9707	-1204.4434	1685.9481	-1563.34	-1129.1162	1688.2281	-1606.1244	-1173.1143	1724.3777	-1581.9722	-1133.559	1581.0629	-1603.5336	-1239.7279	1699.2462	1119.29	-1309.4457	1698.8066	1071.7913	-1270.3916	1736.1982	1096.6866	-1244.6217	1594.1821	1106.2728	988.84082	1664.2361	1162.2758	955.89209	1702.1531	1181.1353	921.9314	1662.2075	1214.7739	939.81116	1659.29	1159.9141	999.22089	1668.5759	-1579.5232	1058.7644	1669.9734	-1518.6924	1025.0638	1708.0063	-1551.1598	1059.3036	1672.2185	-1585.666	-552.50055	1664.1497	-294.4415	-557.32062	1664.9645	-210.13914	-555.31903	1701.3608	-257.10526	-586.75134	1662.4929	-259.60385	-507.29019	1666.5891	-254.5551																																														-1068.8695	209.72427	-1624.9657	-1074.4309	248.31931	-1624.2623	-1321.8459	231.51472	1025.0416	-1320.569	270.24722	1029.4191	848.05005	183.6627	1196.3322	851.86957	222.42918	1194.4426	1088.7714	202.49051	-1428.1619	1082.8561	240.82617	-1432.2097	-1171.8976	1686.9331	-1581.8252	-1170.6309	1647.954	-1581.6725	-1271.0283	1699.0487	1097.965	-1271.6962	1660.0775	1099.3062	953.15961	1705.2974	1182.6992	972.76062	1732.3435	1162.5671	1026.49	1669.2158	-1551.6644	1027.9226	1630.2455	-1552.1716	-554.65778	1664.5142	-256.7113	-553.95813	1625.5227	-256.29443
